<svg version="1.1" xmlns="http://www.w3.org/2000/svg" xmlns:xlink="http://www.w3.org/1999/xlink" width="95.50562" height="38.79053"><g transform="translate(-83.00001,-165.00004)"><g data-paper-data="{&quot;isPaintingLayer&quot;:true}" fill="#000000" fill-rule="nonzero" stroke="none" stroke-width="0.5" stroke-linecap="butt" stroke-linejoin="miter" stroke-miterlimit="10" stroke-dasharray="" stroke-dashoffset="0" font-family="none" font-weight="none" font-size="none" text-anchor="none" style="mix-blend-mode: normal"><path d="M178.47301,182.36637c-0.36637,2.47301 -2.47301,2.13363 -2.47301,2.13363c-2.15265,0 -5.8053,0 -7.95795,0c0.57369,1.57665 1.07294,3.16061 1.32966,4.70943c0.20673,1.24723 1.02225,2.89661 0.12829,3.79057c-2.98457,2.98457 -4.98006,2.5 -8.5,2.5c-0.14148,0 -0.28969,0.01496 -0.44176,0.03853c-0.00734,0.9883 -0.02488,1.9757 -0.05824,2.96147c-0.00233,0.06876 0.00641,3.45904 -0.62829,3.79057c-1.61134,0.84166 -3.49561,1 -5.24342,1.5l-0.27812,-0.83435c-0.76685,-0.21837 -1.56694,-0.36147 -2.35017,-0.54274c-0.83439,0.19312 -1.68792,0.3429 -2.5,0.58653v-1.5c-0.42875,-0.25725 0,-1 0,-1.5c0,-2.16667 0,-4.33333 0,-6.5c0,-0.74134 0,-1.48268 0,-2.22403c-1.97752,0.31469 -3.91227,0.22403 -6,0.22403c-2.1887,0 -4.12935,0.13572 -6.26777,-0.73223c-0.4368,-0.17729 -0.91506,-0.53631 -1,-1c-0.04884,-0.2666 1.03263,-0.21021 0.76777,-0.26777c-3.64486,-0.79204 -7.88462,0.38964 -11.60634,-0.07464c-1.79564,-0.22401 -3.0714,-0.92536 -4.89366,-0.92536c-1.83651,-0.10286 -2.86811,-0.72546 -4.5,-1c-2.81575,-0.47371 -6.13879,0 -9,0c-1.28713,0 -2.92703,-0.25415 -4.3102,-0.21088c0,0.00001 0,0.00002 0,0.00003c0,0 0,0 0,0c-0.07175,2.10907 -0.1898,4.20981 -0.1898,6.21085c0,0.61765 0.39706,4.10294 0,4.5c-0.97548,0.97548 -2.29202,1.52222 -3.50077,2.20448c-0.00004,0.00003 -0.00008,0.00007 -0.00011,0.0001c-0.00004,0.00002 -0.00008,0.00005 -0.00012,0.00007c-0.15291,0.13404 -0.31881,0.23527 -0.49887,0.29531c-0.00004,0.00002 -0.00008,0.00005 -0.00011,0.00007c-0.32812,0.10937 -0.66194,0.19095 -1,0.25191v0.24809c-0.06253,-0.07295 -0.12738,-0.14466 -0.19413,-0.21537c-1.56619,0.24604 -3.21637,0.08291 -4.80587,0.21537c0,-1.6536 0,-4.80719 0,-6.46079c-0.17012,-0.02361 -0.33762,-0.03921 -0.5,-0.03921c-3.97333,0 -7.5,-1.40695 -7.5,-6c0,-0.65946 -0.02207,-1.32803 -0.04876,-2h-1.45124c0.24362,-0.81207 0.39341,-1.6656 0.58653,-2.49998c0,-0.00001 0,-0.00002 -0.00001,-0.00003c0,-0.00001 0,-0.00001 0,-0.00002c-0.19312,-0.83438 -0.3429,-1.6879 -0.58652,-2.49997h1.43531c0,0 0,-0.00001 0,-0.00001h0c0.19666,-2.19452 0.83136,-4.26667 2.56469,-5.99999c0.35355,-0.35355 1,0 1.5,0c1.30128,0 2.56049,-0.04173 3.81363,0.04435c0,0 0.00001,-0.00001 0.00001,-0.00001c0,0 0.00001,0 0.00001,0c0.06117,-0.04668 0.12328,-0.09277 0.18635,-0.13828c0,0 0,-0.00001 0,-0.00001c0,-1.80202 0,-3.60403 0,-5.40605c0,0 0,-2.5 2.5,-2.5c0.85353,0 1.41566,0.2914 1.78586,0.67524c0,0 0.00001,0 0.00001,0c0,0 0.00001,0.00001 0.00001,0.00001c0.64038,0.03946 1.27755,0.09173 1.89846,0.20889c0.00001,0 0.00001,0 0.00002,-0.00001c0.00001,0 0.00001,0 0.00002,0c0.27777,-0.11993 0.55133,-0.24566 0.81561,-0.38413v0.58292c0.12488,0.03825 0.24883,0.08027 0.37171,0.12651c0.49328,0.18561 0.33333,1 0.5,1.5c0.79101,2.37303 0.72421,4.38874 1.12829,6.79057c0.13135,0.78075 0.74225,1.42836 0.87171,2.20943c0.17121,1.03292 0.27127,2.09609 0.32368,3.17646c2.42647,-0.10072 4.95481,0.11411 7.30461,0.11411c1.90439,0 4.12478,-0.31082 6,0c1.47856,0.24507 3.00126,1.27103 4.5,1c2.15371,0 4.01017,0.81191 6.10634,1.07464c3.08251,0.38636 7.47355,-1.13558 10.39366,-0.07464c1.45813,0.52977 2.31075,2.19942 3.76777,2.73223c0.24408,0.08926 -0.49118,-0.59947 -0.26777,-0.73223c1.11308,-0.66143 5.21487,0 6.5,0c0.36911,0 0.74449,-0.00609 1.11684,-0.03555c-0.34957,-1.15727 -0.58094,-2.27971 -0.61684,-2.46445c0,-2.53032 -0.4137,-5.50411 0,-8c0.17597,-1.06164 0.75453,-2.14604 0.96649,-3.22799c-0.09699,-0.47454 -0.33364,-1.05172 0.03351,-1.27201v-1.5c0.32791,0.09837 0.66257,0.18144 1,0.25825c0,-1.25275 0,-2.5055 0,-3.75825v-1.5c1.06325,0.38319 2.21819,0.59559 3.30358,0.93753c0.58119,-0.29596 1.1662,-0.5879 1.69642,-0.93753c0,0.05551 0,1.61102 0,1.66653c0.15138,0.09051 0.29884,0.18833 0.44174,0.29463c1.34935,1.00373 0.07904,4.66053 0.55821,6.02316c0.23832,0.67771 1.23898,0.8882 1.53864,1.52407c0.06334,-0.09347 0.12794,-0.18556 0.19364,-0.27616c0.27674,-0.38163 0.55929,-1.16732 1,-1c0.78995,0.29991 1.54549,0.69871 2.25918,1.16716c1.22202,-0.02067 2.39243,0.32218 3.29915,1.2289c0.87637,0.87637 1.38743,2.05409 2.08114,3.08114c0.07175,0.21524 0.14632,0.43174 0.2232,0.64937c0.46994,0.05433 0.94692,0.1412 1.40509,0.1412c2.33333,0 4.66667,0 7,0h1.5c0,0 2.83938,0.39336 2.47301,2.86637zM90.53014,189.77882c-0.00001,-0.00001 -0.00001,-0.00002 -0.00002,-0.00004c-0.08341,-0.02261 -0.16758,-0.04668 -0.25251,-0.07223c0.13601,0.21817 0.26986,0.44512 0.49016,0.52568c0.1604,0.05866 -0.10214,-0.21867 -0.23761,-0.4534c-0.00001,0 -0.00001,0 -0.00002,-0.00001zM89.59854,189.47603c-0.05717,-0.02155 -0.11469,-0.04376 -0.17257,-0.06665c-0.00857,0.20276 0.00491,0.40162 0.07403,0.59062c0.06134,0.16775 0.04234,-0.2402 0.09854,-0.52397zM164.41444,190.35733c-0.02694,-0.14188 -0.05893,-0.28305 -0.09483,-0.42313c-0.05746,0.14254 -0.12767,0.27856 -0.20923,0.40666c0.10412,0.00325 0.20576,0.00862 0.30406,0.01647z"/></g></g></svg>